# xmcd
#
# Track frame offsets: 
#        150
#        16580
#        33262
#        48357
#        64106
#        79635
#        96659
#        112824
#        125353
#        141033
#        154144
#        169808
#        183426
#        202552
#        220462
#
# Disc length: 3152 seconds
#
# Revision: 0
# Processed by: cddbd v1.5.2PL0 Copyright (c) Steve Scherf et al.
# Submitted via: ExactAudioCopy v1.0b3
#
DISCID=bf0c4e0f
DTITLE=ちあきなおみ - ドーナツ盤メモリー ちあきなおみ COCA-71100
DYEAR=2006
DGENRE=Blues
TTITLE0=雨に濡れた慕情
TTITLE1=かなしい唇
TTITLE2=Ｘ＋Ｙ＝ＬＯＶＥ
TTITLE3=想い出なんてほしくない
TTITLE4=別れたあとで
TTITLE5=変身
TTITLE6=喝采
TTITLE7=最后の電話
TTITLE8=夜間飛行 
TTITLE9=ニ年前の秋
TTITLE10=円舞曲
TTITLE11=女の旅
TTITLE12=酒場川 
TTITLE13=矢切の渡し
TTITLE14=喝采（オリジナルカラオケ） 
EXTD=
EXTT0=
EXTT1=
EXTT2=
EXTT3=
EXTT4=
EXTT5=
EXTT6=
EXTT7=
EXTT8=
EXTT9=
EXTT10=
EXTT11=
EXTT12=
EXTT13=
EXTT14=
PLAYORDER=
